<svg xmlns="http://www.w3.org/2000/svg" xmlns:xlink="http://www.w3.org/1999/xlink" width="500" zoomAndPan="magnify" viewBox="0 0 375 374.999991" height="500" preserveAspectRatio="xMidYMid meet" version="1.0"><defs><g/></defs><rect x="-37.5" width="450" fill="#ffffff" y="-37.499999" height="449.999989" fill-opacity="1"/><rect x="-37.5" width="450" fill="#ffffff" y="-37.499999" height="449.999989" fill-opacity="1"/><rect x="-37.5" width="450" fill="#ffffff" y="-37.499999" height="449.999989" fill-opacity="1"/><g fill="#000000" fill-opacity="1"><g transform="translate(37.500002, 173.668023)"><g><path d="M 25.171875 -58.09375 C 28.265625 -58.09375 31.285156 -57.640625 34.234375 -56.734375 C 37.179688 -55.835938 39.367188 -54.953125 40.796875 -54.078125 L 42.875 -52.703125 L 37.625 -42.328125 C 37.207031 -42.597656 36.628906 -42.953125 35.890625 -43.390625 C 35.148438 -43.828125 33.765625 -44.414062 31.734375 -45.15625 C 29.710938 -45.894531 27.828125 -46.265625 26.078125 -46.265625 C 23.910156 -46.265625 22.238281 -45.800781 21.0625 -44.875 C 19.882812 -43.957031 19.296875 -42.710938 19.296875 -41.140625 C 19.296875 -40.359375 19.570312 -39.632812 20.125 -38.96875 C 20.675781 -38.300781 21.617188 -37.585938 22.953125 -36.828125 C 24.296875 -36.066406 25.472656 -35.453125 26.484375 -34.984375 C 27.503906 -34.523438 29.070312 -33.835938 31.1875 -32.921875 C 34.875 -31.347656 38.019531 -29.210938 40.625 -26.515625 C 43.226562 -23.816406 44.53125 -20.765625 44.53125 -17.359375 C 44.53125 -14.085938 43.941406 -11.226562 42.765625 -8.78125 C 41.597656 -6.34375 39.988281 -4.429688 37.9375 -3.046875 C 35.882812 -1.660156 33.613281 -0.632812 31.125 0.03125 C 28.632812 0.695312 25.9375 1.03125 23.03125 1.03125 C 20.539062 1.03125 18.097656 0.773438 15.703125 0.265625 C 13.304688 -0.234375 11.300781 -0.863281 9.6875 -1.625 C 8.070312 -2.382812 6.617188 -3.132812 5.328125 -3.875 C 4.035156 -4.613281 3.085938 -5.234375 2.484375 -5.734375 L 1.59375 -6.5 L 8.09375 -17.421875 C 8.644531 -16.960938 9.40625 -16.375 10.375 -15.65625 C 11.34375 -14.945312 13.054688 -13.992188 15.515625 -12.796875 C 17.984375 -11.597656 20.164062 -11 22.0625 -11 C 27.550781 -11 30.296875 -12.863281 30.296875 -16.59375 C 30.296875 -17.375 30.097656 -18.097656 29.703125 -18.765625 C 29.304688 -19.441406 28.613281 -20.113281 27.625 -20.78125 C 26.632812 -21.445312 25.757812 -21.972656 25 -22.359375 C 24.238281 -22.753906 22.992188 -23.351562 21.265625 -24.15625 C 19.535156 -24.96875 18.253906 -25.582031 17.421875 -26 C 13.960938 -27.707031 11.285156 -29.835938 9.390625 -32.390625 C 7.503906 -34.953125 6.5625 -37.707031 6.5625 -40.65625 C 6.5625 -45.78125 8.453125 -49.96875 12.234375 -53.21875 C 16.015625 -56.46875 20.328125 -58.09375 25.171875 -58.09375 Z M 25.171875 -58.09375 "/></g></g></g><g fill="#000000" fill-opacity="1"><g transform="translate(80.51744, 173.668023)"><g><path d="M 6.21875 -35.484375 L 6.21875 -48.6875 L 18.46875 -48.6875 L 18.46875 -35.484375 L 25.9375 -35.484375 L 25.9375 -26.140625 L 18.46875 -26.140625 L 18.46875 -14.875 C 18.46875 -11.59375 19.390625 -9.953125 21.234375 -9.953125 C 21.691406 -9.953125 22.171875 -10.046875 22.671875 -10.234375 C 23.179688 -10.421875 23.578125 -10.601562 23.859375 -10.78125 L 24.28125 -11.0625 L 27.3125 -1.171875 C 24.6875 0.296875 21.691406 1.03125 18.328125 1.03125 C 16.023438 1.03125 14.039062 0.628906 12.375 -0.171875 C 10.71875 -0.984375 9.460938 -2.066406 8.609375 -3.421875 C 7.753906 -4.785156 7.140625 -6.210938 6.765625 -7.703125 C 6.398438 -9.203125 6.21875 -10.804688 6.21875 -12.515625 L 6.21875 -26.140625 L 1.109375 -26.140625 L 1.109375 -35.484375 Z M 6.21875 -35.484375 "/></g></g></g><g fill="#000000" fill-opacity="1"><g transform="translate(104.377597, 173.668023)"><g><path d="M 15.703125 -35.484375 L 15.703125 -18.609375 C 15.703125 -15.097656 16.226562 -12.601562 17.28125 -11.125 C 18.34375 -9.65625 20.140625 -8.921875 22.671875 -8.921875 C 25.210938 -8.921875 27.015625 -9.65625 28.078125 -11.125 C 29.140625 -12.601562 29.671875 -15.097656 29.671875 -18.609375 L 29.671875 -35.484375 L 41.90625 -35.484375 L 41.90625 -15.625 C 41.90625 -9.726562 40.367188 -5.476562 37.296875 -2.875 C 34.234375 -0.269531 29.359375 1.03125 22.671875 1.03125 C 15.992188 1.03125 11.117188 -0.269531 8.046875 -2.875 C 4.984375 -5.476562 3.453125 -9.726562 3.453125 -15.625 L 3.453125 -35.484375 Z M 15.703125 -35.484375 "/></g></g></g><g fill="#000000" fill-opacity="1"><g transform="translate(146.288476, 173.668023)"><g><path d="M 6.5625 -4.390625 C 3.25 -8.003906 1.59375 -12.441406 1.59375 -17.703125 C 1.59375 -22.960938 3.25 -27.410156 6.5625 -31.046875 C 9.882812 -34.691406 14.101562 -36.515625 19.21875 -36.515625 C 23.925781 -36.515625 27.800781 -35.039062 30.84375 -32.09375 L 30.84375 -59.46875 L 43.078125 -59.46875 L 43.078125 0 L 30.984375 0 L 30.984375 -4.015625 L 30.84375 -4.015625 C 27.800781 -0.648438 23.925781 1.03125 19.21875 1.03125 C 14.101562 1.03125 9.882812 -0.773438 6.5625 -4.390625 Z M 16.96875 -23.71875 C 15.382812 -22.15625 14.59375 -20.148438 14.59375 -17.703125 C 14.59375 -15.253906 15.351562 -13.257812 16.875 -11.71875 C 18.394531 -10.175781 20.398438 -9.40625 22.890625 -9.40625 C 25.285156 -9.40625 27.253906 -10.1875 28.796875 -11.75 C 30.347656 -13.320312 31.125 -15.304688 31.125 -17.703125 C 31.125 -20.148438 30.328125 -22.15625 28.734375 -23.71875 C 27.140625 -25.289062 25.191406 -26.078125 22.890625 -26.078125 C 20.535156 -26.078125 18.5625 -25.289062 16.96875 -23.71875 Z M 16.96875 -23.71875 "/></g></g></g><g fill="#000000" fill-opacity="1"><g transform="translate(190.066668, 173.668023)"><g><path d="M 40.046875 -16.046875 L 14.3125 -16.046875 C 14.3125 -13.554688 15.117188 -11.710938 16.734375 -10.515625 C 18.347656 -9.316406 20.097656 -8.71875 21.984375 -8.71875 C 23.972656 -8.71875 25.539062 -8.976562 26.6875 -9.5 C 27.84375 -10.03125 29.160156 -11.082031 30.640625 -12.65625 L 39.484375 -8.234375 C 35.796875 -2.054688 29.664062 1.03125 21.09375 1.03125 C 15.75 1.03125 11.160156 -0.796875 7.328125 -4.453125 C 3.503906 -8.117188 1.59375 -12.535156 1.59375 -17.703125 C 1.59375 -22.867188 3.503906 -27.296875 7.328125 -30.984375 C 11.160156 -34.671875 15.75 -36.515625 21.09375 -36.515625 C 26.71875 -36.515625 31.289062 -34.890625 34.8125 -31.640625 C 38.34375 -28.390625 40.109375 -23.742188 40.109375 -17.703125 C 40.109375 -16.867188 40.085938 -16.316406 40.046875 -16.046875 Z M 14.65625 -22.828125 L 28.140625 -22.828125 C 27.867188 -24.671875 27.144531 -26.085938 25.96875 -27.078125 C 24.789062 -28.066406 23.28125 -28.5625 21.4375 -28.5625 C 19.40625 -28.5625 17.789062 -28.03125 16.59375 -26.96875 C 15.394531 -25.90625 14.75 -24.523438 14.65625 -22.828125 Z M 14.65625 -22.828125 "/></g></g></g><g fill="#000000" fill-opacity="1"><g transform="translate(228.312063, 173.668023)"><g><path d="M 4.15625 0 L 4.15625 -35.484375 L 16.390625 -35.484375 L 16.390625 -31.75 L 16.53125 -31.75 C 19.707031 -34.925781 23.09375 -36.515625 26.6875 -36.515625 C 28.445312 -36.515625 30.191406 -36.28125 31.921875 -35.8125 C 33.648438 -35.351562 35.304688 -34.640625 36.890625 -33.671875 C 38.484375 -32.710938 39.773438 -31.34375 40.765625 -29.5625 C 41.753906 -27.789062 42.25 -25.726562 42.25 -23.375 L 42.25 0 L 30.015625 0 L 30.015625 -20.0625 C 30.015625 -21.90625 29.425781 -23.515625 28.25 -24.890625 C 27.070312 -26.273438 25.539062 -26.96875 23.65625 -26.96875 C 21.8125 -26.96875 20.140625 -26.253906 18.640625 -24.828125 C 17.140625 -23.398438 16.390625 -21.8125 16.390625 -20.0625 L 16.390625 0 Z M 4.15625 0 "/></g></g></g><g fill="#000000" fill-opacity="1"><g transform="translate(270.568739, 173.668023)"><g><path d="M 6.21875 -35.484375 L 6.21875 -48.6875 L 18.46875 -48.6875 L 18.46875 -35.484375 L 25.9375 -35.484375 L 25.9375 -26.140625 L 18.46875 -26.140625 L 18.46875 -14.875 C 18.46875 -11.59375 19.390625 -9.953125 21.234375 -9.953125 C 21.691406 -9.953125 22.171875 -10.046875 22.671875 -10.234375 C 23.179688 -10.421875 23.578125 -10.601562 23.859375 -10.78125 L 24.28125 -11.0625 L 27.3125 -1.171875 C 24.6875 0.296875 21.691406 1.03125 18.328125 1.03125 C 16.023438 1.03125 14.039062 0.628906 12.375 -0.171875 C 10.71875 -0.984375 9.460938 -2.066406 8.609375 -3.421875 C 7.753906 -4.785156 7.140625 -6.210938 6.765625 -7.703125 C 6.398438 -9.203125 6.21875 -10.804688 6.21875 -12.515625 L 6.21875 -26.140625 L 1.109375 -26.140625 L 1.109375 -35.484375 Z M 6.21875 -35.484375 "/></g></g></g><g fill="#000000" fill-opacity="1"><g transform="translate(37.500002, 239.369839)"><g><path d="M 34.515625 -11.75 C 36.492188 -11.75 38.414062 -12.046875 40.28125 -12.640625 C 42.144531 -13.242188 43.515625 -13.828125 44.390625 -14.390625 L 45.71875 -15.28125 L 51.25 -4.21875 C 51.0625 -4.082031 50.804688 -3.894531 50.484375 -3.65625 C 50.160156 -3.425781 49.410156 -3 48.234375 -2.375 C 47.054688 -1.757812 45.800781 -1.21875 44.46875 -0.75 C 43.132812 -0.289062 41.382812 0.117188 39.21875 0.484375 C 37.050781 0.847656 34.8125 1.03125 32.5 1.03125 C 27.195312 1.03125 22.171875 -0.269531 17.421875 -2.875 C 12.671875 -5.476562 8.84375 -9.0625 5.9375 -13.625 C 3.039062 -18.1875 1.59375 -23.117188 1.59375 -28.421875 C 1.59375 -32.429688 2.441406 -36.28125 4.140625 -39.96875 C 5.847656 -43.65625 8.117188 -46.8125 10.953125 -49.4375 C 13.796875 -52.070312 17.109375 -54.171875 20.890625 -55.734375 C 24.671875 -57.304688 28.539062 -58.09375 32.5 -58.09375 C 36.1875 -58.09375 39.585938 -57.65625 42.703125 -56.78125 C 45.816406 -55.90625 48.019531 -55.03125 49.3125 -54.15625 L 51.25 -52.828125 L 45.71875 -41.765625 C 45.394531 -42.046875 44.910156 -42.378906 44.265625 -42.765625 C 43.617188 -43.160156 42.328125 -43.679688 40.390625 -44.328125 C 38.453125 -44.972656 36.492188 -45.296875 34.515625 -45.296875 C 31.378906 -45.296875 28.566406 -44.785156 26.078125 -43.765625 C 23.585938 -42.753906 21.613281 -41.421875 20.15625 -39.765625 C 18.707031 -38.109375 17.601562 -36.320312 16.84375 -34.40625 C 16.082031 -32.488281 15.703125 -30.539062 15.703125 -28.5625 C 15.703125 -24.226562 17.328125 -20.34375 20.578125 -16.90625 C 23.828125 -13.46875 28.472656 -11.75 34.515625 -11.75 Z M 34.515625 -11.75 "/></g></g></g><g fill="#000000" fill-opacity="1"><g transform="translate(86.119382, 239.369839)"><g><path d="M 4.15625 0 L 4.15625 -59.46875 L 16.390625 -59.46875 L 16.390625 0 Z M 4.15625 0 "/></g></g></g><g fill="#000000" fill-opacity="1"><g transform="translate(103.20187, 239.369839)"><g><path d="M 15.703125 -35.484375 L 15.703125 -18.609375 C 15.703125 -15.097656 16.226562 -12.601562 17.28125 -11.125 C 18.34375 -9.65625 20.140625 -8.921875 22.671875 -8.921875 C 25.210938 -8.921875 27.015625 -9.65625 28.078125 -11.125 C 29.140625 -12.601562 29.671875 -15.097656 29.671875 -18.609375 L 29.671875 -35.484375 L 41.90625 -35.484375 L 41.90625 -15.625 C 41.90625 -9.726562 40.367188 -5.476562 37.296875 -2.875 C 34.234375 -0.269531 29.359375 1.03125 22.671875 1.03125 C 15.992188 1.03125 11.117188 -0.269531 8.046875 -2.875 C 4.984375 -5.476562 3.453125 -9.726562 3.453125 -15.625 L 3.453125 -35.484375 Z M 15.703125 -35.484375 "/></g></g></g><g fill="#000000" fill-opacity="1"><g transform="translate(145.112749, 239.369839)"><g><path d="M 40.65625 -31.046875 C 43.976562 -27.410156 45.640625 -22.960938 45.640625 -17.703125 C 45.640625 -12.441406 43.976562 -8.003906 40.65625 -4.390625 C 37.34375 -0.773438 33.128906 1.03125 28.015625 1.03125 C 23.304688 1.03125 19.429688 -0.648438 16.390625 -4.015625 L 16.25 -4.015625 L 16.25 0 L 4.15625 0 L 4.15625 -59.46875 L 16.390625 -59.46875 L 16.390625 -32.09375 C 19.429688 -35.039062 23.304688 -36.515625 28.015625 -36.515625 C 33.128906 -36.515625 37.34375 -34.691406 40.65625 -31.046875 Z M 30.359375 -11.71875 C 31.878906 -13.257812 32.640625 -15.253906 32.640625 -17.703125 C 32.640625 -20.148438 31.84375 -22.15625 30.25 -23.71875 C 28.664062 -25.289062 26.695312 -26.078125 24.34375 -26.078125 C 22.039062 -26.078125 20.09375 -25.289062 18.5 -23.71875 C 16.90625 -22.15625 16.109375 -20.148438 16.109375 -17.703125 C 16.109375 -15.304688 16.878906 -13.320312 18.421875 -11.75 C 19.972656 -10.1875 21.945312 -9.40625 24.34375 -9.40625 C 26.832031 -9.40625 28.835938 -10.175781 30.359375 -11.71875 Z M 30.359375 -11.71875 "/></g></g></g><g fill="#000000" fill-opacity="1"><g transform="translate(188.890949, 239.369839)"><g><path d="M 19.578125 -36.515625 C 21.597656 -36.515625 23.597656 -36.28125 25.578125 -35.8125 C 27.566406 -35.351562 29.046875 -34.894531 30.015625 -34.4375 L 31.46875 -33.75 L 27.453125 -25.71875 C 24.691406 -27.195312 22.066406 -27.9375 19.578125 -27.9375 C 18.191406 -27.9375 17.207031 -27.785156 16.625 -27.484375 C 16.050781 -27.191406 15.765625 -26.628906 15.765625 -25.796875 C 15.765625 -25.609375 15.785156 -25.421875 15.828125 -25.234375 C 15.878906 -25.054688 15.972656 -24.882812 16.109375 -24.71875 C 16.253906 -24.5625 16.382812 -24.425781 16.5 -24.3125 C 16.613281 -24.195312 16.804688 -24.066406 17.078125 -23.921875 C 17.359375 -23.785156 17.578125 -23.679688 17.734375 -23.609375 C 17.898438 -23.546875 18.164062 -23.441406 18.53125 -23.296875 C 18.90625 -23.160156 19.179688 -23.054688 19.359375 -22.984375 C 19.546875 -22.921875 19.859375 -22.816406 20.296875 -22.671875 C 20.734375 -22.535156 21.066406 -22.445312 21.296875 -22.40625 C 22.722656 -21.988281 23.96875 -21.523438 25.03125 -21.015625 C 26.09375 -20.515625 27.210938 -19.828125 28.390625 -18.953125 C 29.566406 -18.078125 30.476562 -16.96875 31.125 -15.625 C 31.769531 -14.289062 32.09375 -12.769531 32.09375 -11.0625 C 32.09375 -3 26.488281 1.03125 15.28125 1.03125 C 12.75 1.03125 10.34375 0.640625 8.0625 -0.140625 C 5.78125 -0.921875 4.128906 -1.703125 3.109375 -2.484375 L 1.59375 -3.734375 L 6.5625 -12.109375 C 6.9375 -11.785156 7.421875 -11.398438 8.015625 -10.953125 C 8.617188 -10.515625 9.703125 -9.914062 11.265625 -9.15625 C 12.835938 -8.394531 14.203125 -8.015625 15.359375 -8.015625 C 17.890625 -8.015625 19.15625 -8.867188 19.15625 -10.578125 C 19.15625 -11.359375 18.832031 -11.96875 18.1875 -12.40625 C 17.539062 -12.851562 16.445312 -13.351562 14.90625 -13.90625 C 13.363281 -14.457031 12.148438 -14.960938 11.265625 -15.421875 C 9.054688 -16.578125 7.304688 -17.878906 6.015625 -19.328125 C 4.722656 -20.773438 4.078125 -22.703125 4.078125 -25.109375 C 4.078125 -28.703125 5.472656 -31.5 8.265625 -33.5 C 11.054688 -35.507812 14.828125 -36.515625 19.578125 -36.515625 Z M 19.578125 -36.515625 "/></g></g></g></svg>